<svg width="86" height="101" viewBox="0 0 86 101" fill="none" xmlns="http://www.w3.org/2000/svg">
<path fill-rule="evenodd" clip-rule="evenodd" d="M78.1901 0.463776H7.80985C2.10528 0.463776 0 2.57492 0 8.29803V77.3563C0 78.0039 0.0260448 78.6056 0.0830976 79.1629C0.212972 80.4122 0.237424 81.6227 1.39602 83.0009C1.50924 83.1359 2.69211 84.0186 2.69211 84.0186C3.32837 84.3315 3.76282 84.562 4.48041 84.8516L39.1366 99.4117C40.9357 100.239 41.688 100.561 42.9948 100.535V100.535C42.9965 100.535 42.9981 100.535 42.9999 100.535C43.0017 100.535 43.0033 100.535 43.0051 100.535V100.535C44.3118 100.561 45.0641 100.239 46.8634 99.4117L81.5194 84.8516C82.2372 84.562 82.6714 84.3315 83.3079 84.0186C83.3079 84.0186 84.4908 83.1359 84.6038 83.0009C85.7624 81.6227 85.7868 80.4122 85.9167 79.1629C85.9738 78.6056 86 78.0039 86 77.3563V8.29803C86 2.57492 83.8945 0.463776 78.1901 0.463776Z" fill="#090D15"/>
<path d="M73.4761 69.893L73.4601 70.0523L73.4443 70.2273L73.4124 70.3867L73.365 70.5459L73.3341 70.6893L73.2863 70.8487L73.2229 70.9921L73.1592 71.1196L73.0967 71.2628L73.0173 71.3902L72.938 71.5178L72.8435 71.6452L72.764 71.7726L72.6697 71.884L72.5584 71.9956L72.464 72.0912L72.3371 72.2027L72.2267 72.2983L72.0997 72.3939L71.9735 72.4725L71.8474 72.568L71.7044 72.6476L71.5623 72.7114L71.4204 72.791L71.2614 72.8548L71.1036 72.9186L70.9457 72.9662L70.7878 73.0142L70.6448 73.0618L70.487 73.0938L70.3449 73.1256L70.203 73.1574L70.044 73.1894L69.886 73.2052L69.7441 73.2212L69.5851 73.2372L69.4115 73.2532L69.2534 73.269H69.0956H68.9217H68.747H68.5892L68.4311 73.2532H68.2575L68.0994 73.2372L67.9407 73.2212L67.7669 73.2052L67.609 73.1734L67.4511 73.1574L67.2922 73.1256L67.1342 73.0938L66.9763 73.0618L66.8184 73.03L66.6597 72.9824L66.5176 72.9504L66.3597 72.9026L66.2016 72.8548L66.0588 72.791L65.901 72.7432L65.7589 72.6956L65.6008 72.6318L65.458 72.568L65.3159 72.5043L65.1738 72.4257L65.031 72.3619L64.8889 72.2822L64.7627 72.2027L64.6198 72.123L64.4936 72.0434L64.3666 71.9638L64.2404 71.8682L64.1143 71.7726L63.9872 71.677L63.8609 71.5814L63.7498 71.4858L63.6236 71.3744L63.719 71.247L63.8292 71.1354L63.9245 71.0079L64.0349 70.8805L64.1302 70.7691L64.2245 70.6417L64.3357 70.5141L64.43 70.4027L64.5413 70.2753L64.6357 70.1637L64.7468 70.0363L64.8412 69.9088L64.9366 69.7974L65.0468 69.67L65.1421 69.5424L65.2523 69.431L65.3476 69.3036L65.4738 69.3992L65.6159 69.4948L65.7429 69.5904L65.885 69.686L66.0121 69.7656L66.1542 69.861L66.2801 69.9408L66.4233 70.0044L66.5493 70.0841L66.6914 70.1479L66.8344 70.2115L66.9763 70.2753L67.1186 70.3231L67.2614 70.3867L67.4192 70.4345L67.5773 70.4823L67.7192 70.5301L67.8781 70.5621L68.036 70.5939L68.1939 70.6257L68.3677 70.6417L68.5265 70.6735H68.6845L68.8581 70.6893H69.0162H69.2058L69.3796 70.6735L69.5385 70.6417L69.6804 70.6097L69.8225 70.5779L69.9496 70.5301L70.06 70.4665L70.187 70.3709L70.2813 70.2593L70.3449 70.1318L70.3927 69.9886L70.4083 69.8292V69.7974L70.3927 69.6062L70.3291 69.4468L70.2496 69.3354L70.1393 69.2398L70.0121 69.1442L69.886 69.0806L69.7441 69.0168L69.5851 68.9531L69.3955 68.8736L69.2851 68.8417L69.1592 68.8098L69.0162 68.7619L68.8741 68.7301L68.7162 68.6823L68.5573 68.6505L68.3836 68.6027L68.2256 68.5709L68.0518 68.5231L67.8939 68.4913L67.735 68.4435L67.5773 68.4115L67.4192 68.3637L67.2763 68.3161L67.1186 68.2841L66.9763 68.2363L66.8344 68.1885L66.6914 68.1407L66.5176 68.0769L66.3597 68.0132L66.2016 67.9495L66.0429 67.8858L65.901 67.8062L65.7429 67.7266L65.6159 67.647L65.4738 67.5674L65.3476 67.4718L65.2206 67.3922L65.1104 67.2964L64.9993 67.185L64.8889 67.0734L64.7936 66.9618L64.6993 66.8504L64.6198 66.739L64.5413 66.6115L64.4619 66.4683L64.3983 66.3577L64.3506 66.2302L64.304 66.0868L64.2564 65.9594L64.2245 65.8L64.1927 65.6566L64.1768 65.4974L64.161 65.3381L64.1451 65.1631V64.9877V64.9559V64.7965L64.161 64.6373L64.1768 64.4939L64.1927 64.3346L64.2245 64.1913L64.2564 64.048L64.304 63.9044L64.3357 63.7612L64.3983 63.6178L64.4619 63.4744L64.5253 63.3312L64.604 63.1877L64.6832 63.0445L64.7776 62.9169L64.8731 62.7895L64.9833 62.6621L65.0944 62.5507L65.2048 62.4231L65.3319 62.3115L65.4421 62.2319L65.5691 62.1363L65.6954 62.0408L65.8214 61.9612L65.9644 61.8816L66.1065 61.8178L66.2484 61.7382L66.3914 61.6746L66.5493 61.6266L66.7071 61.563L66.8501 61.5152L66.9763 61.4832L67.1186 61.4514L67.2614 61.4196L67.4192 61.3878L67.5613 61.3558L67.7192 61.34L67.8781 61.324L68.036 61.308L68.1939 61.2922H68.3518H68.5265H68.7004H68.8741L69.0479 61.308L69.2217 61.324H69.3796L69.5543 61.34L69.7122 61.3718L69.886 61.3878L70.044 61.4196L70.187 61.4514L70.3449 61.4832L70.5027 61.5152L70.6448 61.547L70.8036 61.5948L70.9457 61.6426L71.0878 61.6746L71.2466 61.7382L71.3887 61.786L71.5306 61.8496L71.6727 61.9134L71.8314 61.9772L71.9735 62.0568L72.0997 62.1205L72.2427 62.2001L72.3848 62.2797L72.5109 62.3595L72.6537 62.4551L72.7801 62.5345L72.9071 62.6303L73.0333 62.7259L73.1592 62.8213L73.065 62.9489L72.9856 63.0763L72.8912 63.2036L72.7958 63.3312L72.7016 63.4744L72.622 63.6018L72.5267 63.7294L72.4323 63.8568L72.3531 63.9842L72.2584 64.1117L72.1633 64.2391L72.0837 64.3665L71.9895 64.5099L71.894 64.6373L71.7997 64.7647L71.7203 64.8921L71.6259 65.0195L71.4989 64.9241L71.3569 64.8443L71.2306 64.7647L71.1036 64.6691L70.9617 64.6055L70.8344 64.5257L70.6925 64.4619L70.5664 64.3983L70.4234 64.3346L70.2972 64.2709L70.1553 64.2232L70.0283 64.1594L69.8543 64.1117L69.6964 64.0638L69.5385 64.0162L69.3796 63.9842L69.2217 63.9524L69.0638 63.9204L68.906 63.9044L68.747 63.8886L68.6051 63.8726H68.4471H68.2575L68.0837 63.9044L67.9247 63.9364L67.7828 63.9682L67.6567 64.032L67.5454 64.0956L67.4033 64.2232L67.308 64.3665L67.2456 64.5099L67.2295 64.6691V64.7011L67.2456 64.9081L67.3239 65.0833L67.3875 65.1789L67.4977 65.2904L67.6407 65.37L67.7669 65.4496L67.9247 65.5134L68.0994 65.5772L68.2892 65.6408L68.4154 65.6726L68.5415 65.7204L68.6845 65.7522L68.8264 65.8L68.9843 65.832L69.1592 65.8798L69.333 65.9274L69.5068 65.9754L69.6804 66.0072L69.8383 66.055L70.0121 66.1028L70.1711 66.1346L70.3291 66.1824L70.487 66.2302L70.6289 66.278L70.7878 66.3258L70.9299 66.3736L71.0719 66.4214L71.2466 66.4841L71.4044 66.5639L71.5623 66.6275L71.7203 66.7071L71.8633 66.7868L72.0054 66.8664L72.1314 66.946L72.2584 67.0416L72.3848 67.1212L72.5109 67.2328L72.638 67.3442L72.7482 67.4718L72.8593 67.5832L72.9537 67.7107L73.049 67.854L73.1275 67.9813L73.2071 68.1249L73.2705 68.2523L73.3182 68.3955L73.365 68.5389L73.3967 68.6823L73.4284 68.8417L73.4601 69.001L73.4761 69.1602L73.492 69.3354V69.5106V69.5424V69.7178L73.4761 69.893ZM62.3855 73.078H62.2267H62.0689H61.911H61.7531H61.5942H61.4361H61.2784H61.1204H60.9457H60.7878H60.63H60.4721H60.313H60.1553H59.9972H59.8394H59.6804H59.5226H59.3647H59.2068H59.0488H58.89H58.7322H58.5743H58.4162H58.2573H58.0994H57.9416H57.7677H57.609H57.4509H57.2931H57.1352H56.9765H56.8184H56.6605H56.5025H56.3437H56.1859H56.028H55.8699H55.711H55.5533H55.3953H55.2374H55.0786H54.9206H54.7468H54.5889H54.431H54.2721H54.1142H53.9562H53.7985H53.6397H53.4817H53.3238V72.9186V72.7592V72.6V72.4415V72.2822V72.123V71.9638V71.8046V71.6452V71.4858V71.3266V71.1673V71.0079V70.8487V70.6893V70.5301V70.3709V70.2115V70.0681V69.9088V69.7496V69.5904V69.431V69.2716V69.1124V68.9531V68.7937V68.6345V68.4753V68.3161V68.1567V67.9973V67.8381V67.6788V67.5194V67.3602V67.2008V67.0416V66.8824V66.723V66.5639V66.4054V66.2462V66.0868V65.9274V65.7682V65.609V65.4496V65.2904V65.1311V64.9717V64.8125V64.6531V64.4939V64.3505V64.1913V64.032V63.8726V63.7134V63.554V63.3948V63.2355V63.0763V62.9169V62.7577V62.5983V62.4389V62.2797V62.1205V61.9612V61.802V61.6426V61.4832H53.4817H53.6397H53.7985H53.9562H54.1142H54.2721H54.431H54.5889H54.7468H54.9048H55.0636H55.2216H55.3793H55.5374H55.6802H55.8382H55.9961H56.1541H56.3129H56.4708H56.6286H56.7867H56.9454H57.1033H57.2612H57.4192H57.5782H57.736H57.8939H58.0518H58.2107H58.3688H58.5264H58.6843H58.8424H59.0013H59.1592H59.317H59.4749H59.6338H59.7917H59.9496H60.1074H60.2506H60.4085H60.5663H60.7244H60.8832H61.041H61.1989H61.3568H61.5157H61.6736H61.8314H61.9895H62.1482H62.3063H62.4642V61.6426V61.786V61.9452V62.1045V62.2637V62.4071V62.5665V62.7259V62.8691V63.0285V63.1877V63.3312V63.4904V63.6496V63.809V63.9524V64.1117H62.3063H62.1482H61.9895H61.8314H61.6736H61.5157H61.3727H61.2148H61.057H60.8989H60.7402H60.5823H60.4243H60.2664H60.1074H59.9496H59.7917H59.6338H59.4749H59.333H59.1749H59.0171H58.8581H58.7004H58.5424H58.3845H58.2256H58.0677H57.9099H57.752H57.593H57.435H57.2931H57.1352H56.9765H56.8184H56.6605H56.5025H56.3437V64.2709V64.4301V64.5893V64.7487V64.9081V65.0515V65.2107V65.37V65.5292V65.6886V65.8478V66.0072H56.5025H56.6605H56.8184H56.9765H57.1352H57.2931H57.4509H57.609H57.752H57.9099H58.0677H58.2256H58.3845H58.5424H58.7004H58.8581H59.0171H59.1749H59.333H59.4909H59.6496H59.8075H59.9655H60.1236H60.2823H60.4402H60.5823H60.7402H60.8989H61.057H61.2148H61.3727H61.5315H61.6895H61.8474V66.1664V66.3098V66.4683V66.6275V66.7708V66.93V67.0894V67.2328V67.3922V67.5514V67.7107V67.854V68.0132V68.1725V68.3161V68.4753H61.6895H61.5315H61.3727H61.2148H61.057H60.8989H60.7402H60.5823H60.4402H60.2823H60.1236H59.9655H59.8075H59.6496H59.4909H59.333H59.1749H59.0171H58.8581H58.7004H58.5424H58.3845H58.2256H58.0677H57.9099H57.752H57.609H57.4509H57.2931H57.1352H56.9765H56.8184H56.6605H56.5025H56.3437V68.6345V68.8098V68.969V69.1284V69.3036V69.463V69.6222V69.7974V69.9566V70.1159V70.2911V70.4503H56.5025H56.6605H56.8184H56.9765H57.1352H57.2931H57.4509H57.609H57.7677H57.9416H58.0994H58.2573H58.4162H58.5743H58.7322H58.89H59.0488H59.2068H59.3647H59.5226H59.6804H59.8394H59.9972H60.1553H60.313H60.4721H60.63H60.7878H60.9457H61.1204H61.2784H61.4361H61.5942H61.7531H61.911H62.0689H62.2267H62.3855H62.5435V70.6097V70.7531V70.9125V71.0717V71.231V71.3744V71.5336V71.6928V71.8364V71.9956V72.1548V72.2983V72.4566V72.6158V72.775V72.9186V73.078H62.3855ZM50.8307 73.078H50.6728H50.5148H50.3403H50.1824H50.0243H49.8665H49.7075H49.5497H49.3759H49.218H49.0599H48.9012H48.7433H48.5854H48.4116H48.2527H48.0948H47.9368V72.9186V72.7592V72.6V72.4407V72.2804V72.1212V71.9618V71.8024V71.6432V71.484V71.3247V71.1646V71.0052V70.8458V70.6866V70.5273V70.367V70.2076V70.0484V69.8892V69.7299V69.5707V69.4104V69.2512V69.0918V68.9324V68.7732V68.6139V68.4536V68.2942V68.135V67.9758V67.8166V67.6573V67.497V67.3378V67.1784V67.0192V66.8599V66.6996V66.5404V66.381V66.2216L47.8576 66.349L47.7631 66.4935L47.6836 66.6209L47.5893 66.7485L47.5099 66.8917L47.4144 67.0192L47.3361 67.1466L47.2566 67.2909L47.1623 67.4183L47.0828 67.5457L46.9876 67.6733L46.9091 67.8175L46.8138 67.9449L46.7353 68.0723L46.6557 68.2157L46.5604 68.344L46.4819 68.4716L46.3866 68.6148L46.3083 68.7423L46.213 68.8697L46.1345 69.014L46.0549 69.1416L45.9598 69.269L45.8813 69.4123L45.786 69.5406L45.7075 69.668L45.6121 69.7956L45.5326 69.9388L45.4541 70.0671L45.3589 70.1947L45.2805 70.338L45.1851 70.4654L45.1058 70.5928L45.0113 70.7373L44.9319 70.8647H44.8692L44.7741 70.7213L44.6945 70.5928L44.6001 70.4494L44.5207 70.322L44.4263 70.1788L44.3469 70.0504L44.2526 69.907L44.1731 69.7794L44.0777 69.6362L43.9992 69.5088L43.9039 69.3644L43.8256 69.237L43.7303 69.0936L43.6507 68.9662L43.5565 68.8219L43.4769 68.6945L43.3827 68.5512L43.2873 68.4238L43.2079 68.2795L43.1135 68.1521L43.0341 68.0087L42.9397 67.8813L42.8603 67.7369L42.7659 67.6095L42.6865 67.4661L42.5912 67.3387L42.5127 67.1953L42.4174 67.0669L42.3389 66.9236L42.2435 66.7961L42.1642 66.6527L42.0699 66.5255L41.9902 66.381L41.8959 66.2536V66.4128V66.5722V66.7316V66.8917V67.051V67.2102V67.3696V67.529V67.6891V67.8484V67.9918V68.151V68.3104V68.4696V68.6299V68.7892V68.9484V69.1076V69.267V69.4264V69.5865V69.7458V69.9052V70.0644V70.2238V70.383V70.5433V70.7025V70.8618V71.021V71.1804V71.3405V71.484V71.6432V71.8024V71.9618V72.1212V72.2804V72.4407V72.6V72.7592V72.9186V73.078H41.738H41.5793H41.4212H41.2634H41.1055H40.9467H40.7887H40.6308H40.4728H40.314H40.1562H39.9981H39.8402H39.6815H39.5236H39.3656H39.2075H39.0488H38.8909V72.9186V72.7592V72.6V72.4415V72.2822V72.123V71.9638V71.8046V71.6452V71.4858V71.3266V71.1673V71.0079V70.8487V70.6893V70.5301V70.3709V70.2115V70.0681V69.9088V69.7496V69.5904V69.431V69.2716V69.1124V68.9531V68.7937V68.6345V68.4753V68.3161V68.1567V67.9973V67.8381V67.6788V67.5194V67.3602V67.2008V67.0416V66.8824V66.723V66.5639V66.4054V66.2462V66.0868V65.9274V65.7682V65.609V65.4496V65.2904V65.1311V64.9717V64.8125V64.6531V64.4939V64.3505V64.1913V64.032V63.8726V63.7134V63.554V63.3948V63.2355V63.0763V62.9169V62.7577V62.5983V62.4389V62.2797V62.1205V61.9612V61.802V61.6426V61.4832H39.0488H39.2075H39.3498H39.5075H39.6655H39.8243H39.9664H40.1243H40.2832H40.4411H40.5832H40.741H40.9H41.0578H41.1998H41.3576H41.5166H41.6746H41.8165H41.9744H42.1333L42.2118 61.6108L42.2912 61.754L42.3855 61.8805L42.465 62.0239L42.5444 62.1513L42.6229 62.2948L42.7023 62.4212L42.7969 62.5647L42.8761 62.6921L42.9556 62.8195L43.0341 62.9618L43.1135 63.0894L43.2079 63.2326L43.2873 63.3602L43.3667 63.5025L43.4452 63.6299L43.5405 63.7573L43.6201 63.9L43.6984 64.0272L43.7778 64.1706L43.8564 64.2981L43.9518 64.4404L44.0311 64.568L44.1095 64.7112L44.189 64.8377L44.2675 64.9651L44.3628 65.1085L44.4422 65.2361L44.5207 65.3795L44.6001 65.506L44.6786 65.6494L44.7741 65.7767L44.8534 65.9191L44.9319 66.0466L45.0113 65.9191L45.0907 65.7767L45.1851 65.6494L45.2643 65.506L45.343 65.3795L45.4224 65.2361L45.5168 65.1085L45.5962 64.9651L45.6758 64.8377L45.7541 64.7112L45.8494 64.568L45.9279 64.4404L46.0074 64.2981L46.0866 64.1706L46.1811 64.0272L46.2604 63.9L46.34 63.7573L46.4183 63.6299L46.4981 63.5025L46.5923 63.3602L46.6717 63.2326L46.7511 63.0894L46.8297 62.9618L46.9249 62.8195L47.0036 62.6921L47.0828 62.5647L47.1623 62.4212L47.2566 62.2948L47.3361 62.1513L47.4144 62.0239L47.494 61.8805L47.5893 61.754L47.6678 61.6108L47.7472 61.4832H47.9051H48.0631H48.2059H48.364H48.5218H48.6797H48.8227H48.9807H49.1384H49.2965H49.4395H49.5973H49.7552H49.9132H50.0561H50.2141H50.372H50.5298H50.6728H50.8307H50.9886V61.6426V61.802V61.9612V62.1205V62.2797V62.4389V62.5983V62.7577V62.9169V63.0763V63.2355V63.3948V63.554V63.7134V63.8726V64.032V64.1913V64.3505V64.4939V64.6531V64.8125V64.9717V65.1311V65.2904V65.4496V65.609V65.7682V65.9274V66.0868V66.2462V66.4054V66.5639V66.723V66.8824V67.0416V67.2008V67.3602V67.5194V67.6788V67.8381V67.9973V68.1567V68.3161V68.4753V68.6345V68.7937V68.9531V69.1124V69.2716V69.431V69.5904V69.7496V69.9088V70.0681V70.2115V70.3709V70.5301V70.6893V70.8487V71.0079V71.1673V71.3266V71.4858V71.6452V71.8046V71.9638V72.123V72.2822V72.4415V72.6V72.7592V72.9186V73.078H50.8307ZM32.4818 68.3001L32.4342 68.1558L32.3716 67.9964L32.308 67.8531L32.2604 67.7088L32.1978 67.5654L32.1344 67.406L32.0866 67.2618L32.0229 67.1184L31.9606 66.9752L31.9127 66.8309L31.8491 66.6715L31.8025 66.5281L31.7389 66.3839L31.6753 66.2405L31.6278 66.0971L31.5651 65.937L31.5017 65.7934L31.454 65.6502L31.3904 65.506L31.3279 65.3466L31.2802 65.2023L31.2166 65.0589L31.154 65.2023L31.1066 65.3466L31.0429 65.506L30.9793 65.6502L30.9326 65.7934L30.8691 65.937L30.8055 66.0971L30.743 66.2405L30.6951 66.3839L30.6317 66.5281L30.5681 66.6715L30.5213 66.8309L30.4579 66.9752L30.3943 67.1184L30.3468 67.2618L30.2841 67.406L30.2205 67.5654L30.157 67.7088L30.1104 67.8531L30.0468 67.9964L29.9832 68.1558L29.9356 68.3001L29.873 68.4435H30.0309H30.1887H30.3468H30.5056H30.6634H30.8213H30.9793H31.1383H31.2802H31.4381H31.597H31.7549H31.9127H32.0708H32.2287H32.3874H32.5453L32.4818 68.3001ZM37.4483 73.078H37.2895H37.1472H36.9895H36.8306H36.6727H36.5147H36.3728H36.2138H36.056H35.8981H35.7401H35.5813H35.4392H35.2813H35.1233H34.9645H34.8067H34.6646H34.5067H34.3479L34.2852 72.9344L34.2376 72.791L34.1741 72.6476L34.1105 72.4884L34.0637 72.346L34.0003 72.2027L33.9367 72.0594L33.8899 71.916L33.8265 71.7726L33.7629 71.6292L33.7154 71.4858L33.6527 71.3266L33.5891 71.1832L33.5414 71.0399L33.4778 70.8965H33.3199H33.1621H33.0042H32.8463H32.7033H32.5453H32.3874H32.2287H32.0708H31.9127H31.7549H31.597H31.4381H31.2802H31.1383H30.9793H30.8213H30.6634H30.5056H30.3468H30.1887H30.0309H29.873H29.7151H29.572H29.4143H29.2562H29.0973H28.9394L28.8769 71.0399L28.8292 71.1832L28.7656 71.3266L28.7022 71.4858L28.6554 71.6292L28.592 71.7726L28.5284 71.916L28.4807 72.0594L28.4182 72.2027L28.3546 72.346L28.3069 72.4884L28.2442 72.6476L28.1807 72.791L28.1331 72.9344L28.0695 73.078H27.9116H27.7537H27.5959H27.4369H27.2791H27.1052H26.9474H26.7893H26.6306H26.4727H26.3148H26.1568H25.9978H25.8402H25.6823H25.5085H25.3495H25.1917H25.0336H24.8758L24.9383 72.9344L25.0019 72.791L25.0653 72.6476L25.1281 72.4884L25.1757 72.346L25.2393 72.2027L25.3028 72.0594L25.3653 71.916L25.4289 71.7726L25.4925 71.6132L25.5551 71.4698L25.6187 71.3266L25.6662 71.1832L25.7298 71.0399L25.7923 70.8965L25.8559 70.7373L25.9194 70.5939L25.9821 70.4503L26.0457 70.3071L26.1091 70.1637L26.1568 70.0204L26.2193 69.861L26.2829 69.7178L26.3465 69.5744L26.4091 69.431L26.4727 69.2876L26.5363 69.1442L26.5989 68.9849L26.6465 68.8417L26.7101 68.6983L26.7736 68.5549L26.8363 68.4115L26.8997 68.2681L26.9631 68.1089L27.0259 67.9655L27.0893 67.8222L27.137 67.6788L27.2006 67.5356L27.2631 67.3922L27.3267 67.2328L27.3903 67.0894L27.4529 66.946L27.5163 66.8026L27.5799 66.6594L27.6276 66.5159L27.6903 66.3736L27.7537 66.2142L27.8172 66.071L27.8799 65.9274L27.9433 65.784L28.0069 65.6408L28.0695 65.4974L28.1171 65.3381L28.1807 65.1949L28.2442 65.0515L28.3069 64.9081L28.3705 64.7647L28.4339 64.6213L28.4967 64.4619L28.5601 64.3187L28.6077 64.1754L28.6712 64.032L28.7339 63.8886L28.7973 63.7452L28.8609 63.586L28.9235 63.4426L28.9871 63.2992L29.0507 63.1559L29.0973 63.0126L29.1609 62.8691L29.2245 62.7099L29.2881 62.5665L29.3507 62.4231L29.4143 62.2797L29.4777 62.1363L29.5403 61.9931L29.5881 61.8338L29.6515 61.6904L29.7151 61.547L29.7777 61.4036H29.9356H30.0785H30.2364H30.3943H30.5532H30.6951H30.853H31.0111H31.17H31.3121H31.4698H31.6278H31.7866H31.9287H32.0866H32.2444H32.4034H32.5453H32.7033L32.7668 61.547L32.8304 61.6904L32.8931 61.8338L32.9565 61.9931L33.0042 62.1363L33.0667 62.2797L33.1303 62.4231L33.1938 62.5665L33.2574 62.7099L33.3199 62.8691L33.3835 63.0126L33.4471 63.1559L33.4937 63.2992L33.5573 63.4426L33.621 63.586L33.6846 63.7452L33.7471 63.8886L33.8105 64.032L33.8741 64.1754L33.9367 64.3187L33.9844 64.4619L34.0478 64.6213L34.1105 64.7647L34.1741 64.9081L34.2376 65.0515L34.3012 65.1949L34.3637 65.3381L34.4271 65.4974L34.475 65.6408L34.5375 65.784L34.601 65.9274L34.6646 66.071L34.7282 66.2142L34.7907 66.3736L34.8543 66.5159L34.9178 66.6594L34.9645 66.8026L35.028 66.946L35.0916 67.0894L35.1543 67.2328L35.2177 67.3922L35.2813 67.5356L35.3449 67.6788L35.4075 67.8222L35.4551 67.9655L35.5186 68.1089L35.5813 68.2681L35.6447 68.4115L35.7083 68.5549L35.7718 68.6983L35.8345 68.8417L35.8981 68.9849L35.9456 69.1442L36.0083 69.2876L36.0717 69.431L36.1354 69.5744L36.1979 69.7178L36.2615 69.861L36.3251 70.0204L36.3887 70.1637L36.4353 70.3071L36.4989 70.4503L36.5625 70.5939L36.6251 70.7373L36.6885 70.8965L36.7521 71.0399L36.8156 71.1832L36.8781 71.3266L36.9259 71.4698L36.9895 71.6132L37.0521 71.7726L37.1155 71.916L37.179 72.0594L37.2417 72.2027L37.3051 72.346L37.3687 72.4884L37.4166 72.6476L37.4789 72.791L37.5425 72.9344L37.606 73.078H37.4483ZM23.5938 71.5972L23.4668 71.6928L23.3564 71.7726L23.2294 71.8682L23.1032 71.9478L22.9771 72.0434L22.85 72.123L22.7239 72.2027L22.5809 72.2822L22.4388 72.3619L22.2967 72.4415L22.1539 72.5043L22.0118 72.584L21.8539 72.6476L21.712 72.7114L21.553 72.775L21.4111 72.8388L21.2688 72.8866L21.126 72.9344L20.9839 72.9824L20.8261 73.03L20.6841 73.078L20.5252 73.1098L20.3831 73.1416L20.2252 73.1734L20.0665 73.2052L19.9084 73.2212L19.7346 73.2372L19.5768 73.2532L19.4029 73.269L19.244 73.285L19.0704 73.3008H18.8966H18.7226H18.5489H18.39L18.2321 73.285L18.0583 73.269L17.9004 73.2532L17.7426 73.2372L17.5836 73.2212L17.4258 73.1894L17.2677 73.1574L17.1258 73.1256L16.967 73.0938L16.8249 73.046L16.6671 73.0142L16.5241 72.9662L16.382 72.9026L16.2399 72.8548L16.0822 72.791L15.9392 72.7274L15.7971 72.6638L15.6552 72.6L15.512 72.5204L15.386 72.4415L15.2439 72.3619L15.1169 72.2822L14.9907 72.2027L14.8637 72.107L14.7375 72.0116L14.6112 71.916L14.5001 71.8204L14.3899 71.7248L14.2786 71.6132L14.1684 71.5178L14.0572 71.4062L13.947 71.2946L13.8516 71.1832L13.7572 71.0558L13.6619 70.9443L13.5825 70.8169L13.488 70.6893L13.4089 70.5621L13.3302 70.4345L13.2508 70.2911L13.1714 70.1637L13.1089 70.0204L13.0453 69.877L12.9818 69.7336L12.9191 69.5904L12.8715 69.463L12.8078 69.3194L12.7761 69.176L12.7294 69.0328L12.6976 68.8736L12.65 68.7301L12.6183 68.5709L12.6023 68.4275L12.5704 68.2681L12.5548 68.1249L12.5387 67.9655L12.5238 67.8062L12.5081 67.647V67.4718V67.3124V67.2806V67.1212L12.5238 66.946V66.7868L12.5387 66.6275L12.5548 66.4523L12.5865 66.294L12.6023 66.1346L12.634 65.9912L12.6817 65.832L12.7136 65.6726L12.7602 65.5292L12.8078 65.37L12.8555 65.2267L12.9191 65.0673L12.9818 64.9241L13.0453 64.7807L13.1089 64.6373L13.1714 64.4939L13.2508 64.3505L13.3302 64.2232L13.4089 64.0956L13.488 63.9682L13.5676 63.8408L13.6619 63.7134L13.7572 63.586L13.8516 63.4586L13.947 63.3469L14.0572 63.2355L14.1525 63.1239L14.2629 63.0126L14.374 62.9009L14.4842 62.8055L14.6112 62.6939L14.7216 62.5983L14.8478 62.5027L14.9748 62.4231L15.1009 62.3275L15.2282 62.2479L15.3541 62.1683L15.4962 62.0886L15.6392 62.009L15.7811 61.9294L15.9232 61.8656L16.0661 61.802L16.2241 61.7222L16.3503 61.6746L16.5081 61.6266L16.6513 61.563L16.7932 61.531L16.9351 61.4832L17.0939 61.4514L17.236 61.4036L17.3939 61.3718L17.5519 61.3558L17.7107 61.324L17.8687 61.308L18.0264 61.2922L18.1845 61.2762L18.3434 61.2602H18.5172H18.6751H18.8487H19.0225L19.1974 61.2762L19.3712 61.2922H19.5291L19.687 61.308L19.8608 61.34L20.0038 61.3558L20.1616 61.3878L20.3197 61.4196L20.4625 61.4514L20.6044 61.4832L20.7467 61.5152L20.8897 61.563L21.0316 61.5948L21.1578 61.6426L21.3007 61.6904L21.4428 61.754L21.5848 61.8178L21.7277 61.8816L21.8698 61.9612L22.0118 62.0249L22.139 62.1045L22.2809 62.1841L22.4071 62.2637L22.5501 62.3435L22.6762 62.4389L22.8024 62.5187L22.9294 62.6143L23.0556 62.7099L23.1826 62.8213L23.3087 62.9169L23.2134 63.0445L23.1032 63.1559L23.0079 63.2832L22.8977 63.4106L22.8024 63.5382L22.7079 63.6496L22.5967 63.777L22.5024 63.9044L22.4071 64.0162L22.2967 64.1436L22.2015 64.2709L22.0912 64.3983L21.9958 64.5099L21.9016 64.6373L21.7905 64.7647L21.6959 64.8921L21.5848 65.0037L21.4903 65.1311L21.3633 65.0355L21.2371 64.9241L21.1101 64.8443L20.9839 64.7487L20.8578 64.6691L20.7307 64.5893L20.6044 64.5099L20.4625 64.4301L20.3354 64.3665L20.2093 64.3027L20.0823 64.255L19.9402 64.2072L19.7982 64.1594L19.6552 64.1276L19.4974 64.0956L19.3395 64.0638L19.1815 64.048L19.0076 64.032L18.8329 64.0162H18.6591H18.5013L18.3434 64.032L18.2004 64.048L18.0425 64.0798L17.9004 64.1117L17.7574 64.1594L17.6155 64.2072L17.4734 64.2709L17.3313 64.3346L17.2043 64.4142L17.0783 64.4939L16.9511 64.5737L16.8409 64.6691L16.7296 64.7647L16.6194 64.8603L16.5241 64.9717L16.4139 65.0833L16.3185 65.2107L16.2399 65.3223L16.1605 65.4496L16.0822 65.593L16.0026 65.7204L15.9392 65.8638L15.8915 66.0072L15.8288 66.1506L15.7811 66.3098L15.7494 66.4683L15.7177 66.6115L15.6858 66.7868L15.6701 66.946L15.6552 67.1052V67.2806V67.3124V67.4718L15.6701 67.631L15.6858 67.7744L15.7018 67.9337L15.7335 68.0769L15.7654 68.2205L15.7971 68.3637L15.8448 68.5071L15.8915 68.6345L15.9551 68.7937L16.0186 68.9372L16.0971 69.0806L16.1764 69.208L16.2558 69.3354L16.3503 69.463L16.4456 69.5744L16.5558 69.686L16.6513 69.7974L16.7613 69.893L16.8885 69.9886L17.0147 70.0841L17.1407 70.1637L17.2677 70.2433L17.41 70.3071L17.5519 70.3709L17.6947 70.4345L17.8528 70.4823L18.0106 70.5301L18.1696 70.5621L18.3274 70.5939L18.4853 70.6097L18.6591 70.6257H18.8329H19.0225L19.1974 70.6097L19.3712 70.5939L19.5291 70.5779L19.687 70.5459L19.8459 70.5141L20.0038 70.4665L20.1457 70.4345L20.288 70.3709L20.415 70.3071L20.5569 70.2433L20.668 70.1797L20.7944 70.1V69.9408V69.7816V69.6222V69.463V69.2876V69.1284V68.969V68.8098V68.6505H20.6363H20.4935H20.3354H20.1776H20.0197H19.8767H19.7187H19.5608H19.4029H19.2601H19.1021H18.9442H18.7862H18.6434H18.4853V68.4913V68.3479V68.1885V68.0293V67.8699V67.7266V67.5674V67.408V67.2488V67.1052V66.946V66.7868V66.6275V66.4841V66.3258H18.6434H18.8021H18.9602H19.1179H19.2759H19.4338H19.5927H19.7506H19.9084H20.0665H20.2252H20.3831H20.541H20.6989H20.8578H21.0158H21.1737H21.3316H21.4903H21.6484H21.8062H21.9641H22.1229H22.2809H22.4388H22.5967H22.7556H22.9135H23.0715H23.2294H23.3881H23.546H23.704V66.4841V66.6433V66.8026V66.946V67.1052V67.2646V67.4238V67.5832V67.7426V67.8858V68.0451V68.2045V68.3637V68.5231V68.6823V68.8417V68.9849V69.1442V69.3036V69.463V69.6222V69.7816V69.9408V70.0841V70.2433V70.4027V70.5621V70.7213V70.8805V71.024V71.1832V71.3424V71.5018L23.5938 71.5972Z" fill="white"/>
<path d="M18.5078 35.2489H25.3617V29.9325H18.5078V19.079H25.6346V13.7626H12.6875V52.1318H25.743V46.8152H18.5078V35.2489Z" fill="white"/>
<path d="M67.6006 36.4006V45.0612C67.6006 46.5962 66.8932 47.3083 65.4252 47.3083H64.3366C62.8137 47.3083 62.1062 46.5962 62.1062 45.0612V20.833C62.1062 19.2982 62.8137 18.5861 64.3366 18.5861H65.3159C66.7847 18.5861 67.4922 19.2982 67.4922 20.833V28.3432H73.2033V20.5041C73.2033 15.7358 70.9186 13.4335 66.1869 13.4335H63.3575C58.6256 13.4335 56.2858 15.7902 56.2858 20.5594V45.3348C56.2858 50.1042 58.6256 52.4607 63.3575 52.4607H66.2409C70.9739 52.4607 73.3125 50.1042 73.3125 45.3348V36.4006H67.6006Z" fill="white"/>
<path d="M47.3885 52.1318H53.2097V13.7624H47.3885V52.1318Z" fill="white"/>
<path d="M38.9424 30.8093C38.9424 32.3443 38.2359 33.0573 36.7671 33.0573H34.3732V18.915H36.7671C38.2359 18.915 38.9424 19.6273 38.9424 21.1619V30.8093ZM37.6913 13.7624H28.5527V52.1318H34.3732V38.2088H37.6913C42.424 38.2088 44.7628 35.8523 44.7628 31.084V20.8883C44.7628 16.1191 42.424 13.7624 37.6913 13.7624Z" fill="white"/>
<path fill-rule="evenodd" clip-rule="evenodd" d="M26.4186 86.8253H59.7385L42.7314 92.4495L26.4186 86.8253Z" fill="white"/>
</svg>
