<svg width="17" height="17" viewBox="0 0 17 17" fill="none" xmlns="http://www.w3.org/2000/svg">
<path d="M14.7092 0.000244141H2.2908C1.02565 0.000244141 0 1.02585 0 2.29103V14.7094C0 15.9746 1.02561 17.0002 2.2908 17.0002H8.41548L8.42591 10.9253H6.84766C6.64255 10.9253 6.47608 10.7595 6.47529 10.5544L6.46772 8.59618C6.46693 8.38996 6.6339 8.22236 6.84013 8.22236H8.41552V6.33027C8.41552 4.13451 9.75656 2.9389 11.7153 2.9389H13.3227C13.5283 2.9389 13.6951 3.10562 13.6951 3.31131V4.96245C13.6951 5.16805 13.5284 5.33473 13.3229 5.33486L12.3365 5.33532C11.2712 5.33532 11.065 5.8415 11.065 6.58436V8.22241H13.4057C13.6287 8.22241 13.8017 8.41715 13.7755 8.63864L13.5434 10.5968C13.5212 10.7842 13.3622 10.9254 13.1736 10.9254H11.0754L11.065 17.0002H14.7092C15.9744 17.0002 17 15.9746 17 14.7095V2.29103C17 1.02585 15.9743 0.000244141 14.7092 0.000244141Z" fill="#9CA3AF"/>
</svg>
