<svg width="30" height="28" viewBox="0 0 30 28" fill="none" xmlns="http://www.w3.org/2000/svg">
<path d="M4.56349 27.0595V26.1179L6.1386 26.0824C9.17104 26.0141 10.3114 25.6929 10.7933 24.7716C10.9413 24.4887 10.9518 24.4202 10.9443 23.7846C10.9392 23.3369 10.898 22.9483 10.8251 22.6563L10.714 22.2109L6.00471 22.1811L1.29545 22.1512L0.994713 22.014C0.642755 21.8533 0.330485 21.5464 0.137534 21.1714L0 20.9041V11.0756V1.24713L0.132863 0.996378C0.3412 0.603115 0.598182 0.345327 0.960897 0.165683L1.29545 0H14.8975H28.4996L28.8824 0.18357C29.3371 0.401728 29.6678 0.721291 29.8599 1.12834L30 1.42527V11.0942V20.7632L29.8402 21.0923C29.6535 21.4767 29.3346 21.777 28.8812 21.9953L28.5573 22.1512L23.7178 22.1681L18.8782 22.1849L18.7903 22.4948C18.5277 23.4206 18.4464 24.3325 18.5849 24.7987C18.8597 25.7238 20.1789 26.0969 23.1842 26.0996H24.2294V27.0498V28H14.3958H4.56229V27.0584L4.56349 27.0595ZM27.7047 11.0758V2.34595H15.0153H2.32591V11.0758V19.8057H15.0153H27.7047V11.0758Z" fill="#F9FAFB"/>
</svg>
