<svg width="36" height="28" viewBox="0 0 36 28" fill="none" xmlns="http://www.w3.org/2000/svg">
<path d="M0.728625 20.1839C-0.620588 21.0548 -0.170851 22.7097 2.70747 23.4935C5.67574 24.4516 8.91385 24.7129 12.062 24.1903C12.2419 24.1903 12.4218 24.1032 12.5117 24.1032V21.1419L9.45353 22.1C8.28422 22.4484 7.1149 22.5355 5.94558 22.2742C5.04611 22.0129 5.226 21.4903 6.30537 21.0548L12.5117 18.9645V15.7419L3.87679 18.6161C2.79742 18.9645 1.71805 19.4871 0.728625 20.1839ZM21.5964 7.11936V15.5677C25.2843 17.3097 28.1626 15.5677 28.1626 11.0387C28.1626 6.42258 26.4536 4.33226 21.5065 2.67742C18.898 1.80645 16.1996 1.02258 13.5012 0.5V25.671L19.7975 27.5V6.33548C19.7975 5.37742 19.7975 4.68065 20.5171 4.94194C21.5065 5.20323 21.5964 6.16129 21.5964 7.11936ZM33.2896 18.1806C30.6811 17.3097 27.8928 16.9613 25.1943 17.2226C23.7552 17.3097 22.406 17.6581 21.1467 18.0935L20.8769 18.1806V21.5774L26.7235 19.4871C27.8928 19.1387 29.0621 19.0516 30.2314 19.3129C31.1309 19.5742 30.951 20.0968 29.8716 20.5323L20.8769 23.7548V27.0645L33.2896 22.6226C34.1891 22.2742 34.9986 21.8387 35.7182 21.1419C36.3478 20.271 36.078 19.0516 33.2896 18.1806Z" fill="#F9FAFB"/>
</svg>
