<svg width="20" height="17" viewBox="0 0 20 17" fill="none" xmlns="http://www.w3.org/2000/svg">
<path d="M19.6819 1.97787C19.2375 2.17923 18.7763 2.33808 18.3029 2.45308C18.8245 1.94663 19.2166 1.31316 19.4379 0.606104C19.501 0.40425 19.2865 0.229702 19.1081 0.33778C18.4496 0.736903 17.7403 1.03632 16.9999 1.22781C16.9569 1.23892 16.9126 1.24455 16.8681 1.24455C16.7332 1.24455 16.6021 1.19338 16.499 1.1005C15.7112 0.390996 14.6979 0.000244141 13.646 0.000244141C13.1908 0.000244141 12.7312 0.072744 12.28 0.215751C10.8819 0.658872 9.80311 1.83736 9.46465 3.29134C9.33768 3.83671 9.3033 4.38258 9.3624 4.91374C9.36917 4.97478 9.34094 5.01738 9.32353 5.03737C9.29296 5.07239 9.24961 5.09248 9.2046 5.09248C9.19958 5.09248 9.19441 5.09223 9.18929 5.09173C6.12889 4.80118 3.36915 3.29453 1.41842 0.849365C1.31895 0.724645 1.12819 0.739942 1.0489 0.878913C0.666902 1.5486 0.465027 2.31456 0.465027 3.09397C0.465027 4.28845 0.934654 5.41412 1.75039 6.23473C1.40735 6.15162 1.07533 6.02072 0.766913 5.84568C0.617701 5.76097 0.434112 5.86984 0.432015 6.04424C0.410657 7.81872 1.42735 9.39767 2.95038 10.1087C2.91971 10.1094 2.88904 10.1098 2.85832 10.1098C2.6169 10.1098 2.37245 10.0859 2.13186 10.039C1.96383 10.0062 1.82266 10.1691 1.87484 10.3355C2.36919 11.9126 3.69805 13.0751 5.28828 13.3391C3.96848 14.2444 2.43155 14.722 0.831913 14.722L0.333223 14.7217C0.179574 14.7217 0.0496227 14.824 0.0104668 14.9761C-0.028104 15.1259 0.0429423 15.2839 0.173966 15.3617C1.9765 16.4337 4.03256 17.0002 6.12074 17.0002C7.94859 17.0002 9.65838 16.6296 11.2027 15.8986C12.6184 15.2285 13.8694 14.2705 14.921 13.0514C15.9007 11.9157 16.6667 10.6047 17.1978 9.15476C17.7041 7.77268 17.9717 6.29797 17.9717 4.89002V4.82296C17.9717 4.59689 18.0717 4.38417 18.2463 4.23937C18.9087 3.68976 19.4856 3.0428 19.9608 2.31645C20.0863 2.12466 19.8884 1.88429 19.6819 1.97787Z" fill="#9CA3AF"/>
</svg>
