<svg width="142" height="39" viewBox="0 0 142 39" fill="none" xmlns="http://www.w3.org/2000/svg">
<g clip-path="url(#clip0_703_239)">
<mask id="mask0_703_239" style="mask-type:luminance" maskUnits="userSpaceOnUse" x="0" y="0" width="142" height="39">
<path d="M142 0H0V39H142V0Z" fill="white"/>
</mask>
<g mask="url(#mask0_703_239)">
<path d="M0 19.5C0 30.2272 0.0269449 39 0.0628717 39C0.116762 39 7.43682 37.6646 8.33498 37.4878L8.80203 37.3993V30.2361V23.0816H11.5863H14.3706V21.7728C14.3706 21.0565 14.3976 19.1905 14.4335 17.6163L14.4874 14.7687H11.6492H8.80203V11.6293V8.48979H12.0803C13.8856 8.48979 15.3586 8.47211 15.3586 8.44558C15.3586 8.3483 16.0772 0.795919 16.1221 0.415646L16.176 0H8.0835H0V19.5Z" fill="#1F2937"/>
<path d="M134.348 1.14097L127.18 1.72465V19.341V36.9573L127.477 37.0015C127.737 37.0457 141.614 38.0361 141.892 38.0273C141.973 38.0273 142 37.0899 142 33.6498V29.2723H138.946H135.893V26.0886V22.9049H138.497H141.102V19.1022V15.2994H138.407H135.713V12.7791V10.2587L135.919 10.2233C136.027 10.1967 136.943 10.1614 137.958 10.126C138.973 10.0995 140.294 10.0552 140.904 10.0199L142 9.96682V5.25321V0.530762L141.757 0.539605C141.614 0.548449 138.282 0.813754 134.348 1.14097Z" fill="#1F2937"/>
<path d="M88.3346 2.36102C88.4244 3.24538 89.4483 16.5726 89.4305 16.5903C89.4215 16.6079 88.1012 13.4154 86.4934 9.49776C84.8947 5.58006 83.5475 2.33448 83.5115 2.27259C83.4576 2.1753 80.9787 2.62632 76.91 3.4753L76.5237 3.55489V18.7569V33.959H80.5205H84.5174L84.4725 33.3223C84.3827 32.1373 84.0504 22.3386 84.0863 21.9494C84.1133 21.6045 84.3827 22.206 86.9334 28.2726C88.4783 31.9603 89.7897 35.0114 89.8256 35.0644C89.8795 35.1174 91.1279 35.0378 93.2477 34.861C95.0889 34.7019 96.5977 34.5603 96.5977 34.5515C96.6067 34.5427 96.5618 28.1665 96.499 20.3841C96.4361 12.6018 96.3822 5.25285 96.3822 4.04129L96.3733 1.85693H92.3315H88.2807L88.3346 2.36102Z" fill="#1F2937"/>
<path d="M25.1037 2.39656C19.7326 2.75031 16.7777 6.36731 15.8436 13.7074C15.655 15.2286 15.5742 20.3932 15.709 22.1973C16.158 28.0516 17.7656 31.8544 20.6219 33.7911C22.1578 34.8258 24.466 35.3829 26.7474 35.2503C29.3431 35.1088 31.1125 34.3836 32.7021 32.8183C34.0045 31.5361 34.7141 30.3333 35.3967 28.2816C36.3488 25.4162 36.7799 21.1361 36.5643 16.6789C36.3218 11.6911 35.5584 8.58705 33.9865 6.20814C32.4867 3.94419 30.1154 2.59113 27.3492 2.4231C26.909 2.39656 26.442 2.37003 26.3162 2.35235C26.1904 2.34351 25.6516 2.36119 25.1037 2.39656ZM26.3701 9.34759C27.0258 10.0462 27.3043 12.8319 27.3043 18.7925C27.3043 26.1327 26.8371 29.1836 25.8133 28.5292C25.3732 28.2374 25.0408 26.8136 24.8791 24.4524C24.7625 22.7278 24.7625 14.8306 24.8791 13.1768C25.0498 10.8421 25.3552 9.55099 25.8133 9.24147C26.0648 9.0646 26.1097 9.07344 26.3701 9.34759Z" fill="#1F2937"/>
<path d="M37.7229 18.4742V34.5782H41.8455H45.959L46.0129 33.4551C46.0489 32.8272 46.1208 30.7932 46.1747 28.9184C46.2286 27.0435 46.3004 25.3986 46.3364 25.266C46.3813 25.0802 46.7674 26.2742 47.953 30.3068C48.8153 33.2164 49.5428 35.6306 49.5787 35.666C49.6506 35.7456 58.0754 35.0911 58.1653 35.0027C58.1921 34.9673 57.258 32.0755 56.0905 28.5557L53.9707 22.1707L54.4198 21.7817C55.9108 20.4993 57.1413 18.0231 57.4916 15.5735C57.6442 14.5034 57.5454 11.8503 57.3119 10.8687C56.4137 7.02176 54.0336 4.03265 50.9979 2.91836C49.6776 2.44082 49.7854 2.44966 43.543 2.41428L37.7229 2.37891V18.4742ZM46.983 10.002C47.6207 10.3116 48.1416 11.1075 48.4201 12.2041C48.6086 12.9381 48.5817 15.2639 48.3752 16.0068C47.9889 17.404 47.3063 18.2177 46.2825 18.5272L46.0758 18.5802V14.1585V9.72788L46.3723 9.78979C46.525 9.81632 46.8034 9.91361 46.983 10.002Z" fill="#1F2937"/>
<path d="M57.7521 6.58859V10.7008H60.0424H62.3328V22.5511V34.4015H66.6439H70.9551V23.2586V12.1158H73.2904H75.6256V8.00357V3.89133L75.4279 3.85595C75.2394 3.81174 58.1113 2.46751 57.8689 2.47636C57.7791 2.47636 57.7521 3.36071 57.7521 6.58859Z" fill="#1F2937"/>
<path d="M98.2593 19.4116V35.4626H102.705H107.151V19.4116V3.3606H102.705H98.2593V19.4116Z" fill="#1F2937"/>
<path d="M117.3 4.47467C112.432 4.73113 108.382 4.94338 108.301 4.94338C108.148 4.95222 108.139 5.20868 108.139 9.10868V13.2652H110.429H112.72V24.8944V36.5236H117.076H121.432V24.408V12.2924H123.857H126.282V8.13589C126.282 5.84542 126.255 3.98828 126.219 3.98828C126.174 3.99712 122.169 4.20937 117.3 4.47467Z" fill="#1F2937"/>
</g>
</g>
<defs>
<clipPath id="clip0_703_239">
<rect width="142" height="39" fill="white"/>
</clipPath>
</defs>
</svg>
