<svg width="24" height="24" viewBox="0 0 24 24" fill="none" xmlns="http://www.w3.org/2000/svg">
<path d="M14.176 24H17.85C21.226 24 24 21.226 24 17.85V6.15C24 2.775 21.226 0 17.85 0H14.1C14.026 0 13.95 0.074 13.95 0.15V23.85C13.949 23.926 14.025 24 14.176 24ZM18.75 10.801C20.101 10.801 21.149 11.926 21.149 13.199C21.149 14.551 20.024 15.599 18.75 15.599C17.4 15.599 16.35 14.55 16.35 13.199C16.275 11.85 17.4 10.801 18.75 10.801ZM11.4 0H6.15C2.775 0 0 2.775 0 6.15V17.85C0 21.226 2.775 24 6.15 24H11.4C11.474 24 11.55 23.926 11.55 23.851V0.15C11.551 0.074 11.475 0 11.4 0ZM9.676 22.051H6.15C3.824 22.051 1.949 20.176 1.949 17.85V6.15C1.949 3.824 3.824 1.949 6.15 1.949H9.6L9.676 22.051ZM3.75 7.199C3.75 8.474 4.725 9.449 6 9.449C7.275 9.449 8.25 8.474 8.25 7.199C8.25 5.926 7.275 4.949 6 4.949C4.725 4.949 3.75 5.926 3.75 7.199Z" fill="#F9FAFB"/>
</svg>
