<svg width="32" height="32" viewBox="0 0 32 32" fill="none" xmlns="http://www.w3.org/2000/svg">
<circle cx="16" cy="16" r="16" fill="url(#paint0_linear_1256_87)"/>
<path d="M22 16C22.0004 16.1567 21.9608 16.3108 21.8851 16.4474C21.8095 16.584 21.7003 16.6983 21.5682 16.7794L13.3818 21.8641C13.2438 21.95 13.0857 21.9968 12.9239 21.9998C12.7621 22.0029 12.6024 21.962 12.4614 21.8814C12.3217 21.8021 12.2053 21.6865 12.1242 21.5463C12.0431 21.4062 12.0002 21.2467 12 21.0842V10.9158C12.0002 10.7533 12.0431 10.5938 12.1242 10.4537C12.2053 10.3135 12.3217 10.1979 12.4614 10.1186C12.6024 10.038 12.7621 9.99712 12.9239 10.0002C13.0857 10.0032 13.2438 10.05 13.3818 10.1359L21.5682 15.2206C21.7003 15.3017 21.8095 15.416 21.8851 15.5526C21.9608 15.6892 22.0004 15.8433 22 16Z" fill="#FEFF04"/>
<defs>
<linearGradient id="paint0_linear_1256_87" x1="16" y1="0" x2="16" y2="32" gradientUnits="userSpaceOnUse">
<stop stop-color="#090D15"/>
<stop offset="1" stop-color="#090D15" stop-opacity="0"/>
</linearGradient>
</defs>
</svg>
