<svg width="31" height="30" viewBox="0 0 31 30" fill="none" xmlns="http://www.w3.org/2000/svg">
<path d="M6.90538 2.54813C6.98496 2.47462 7.06816 2.40462 7.15859 2.34162C9.58939 0.815541 12.3928 0 15.5036 0C18.4119 0 21.1393 0.780539 23.4616 2.13161C23.6316 2.22611 24.0946 2.53413 24.3297 2.81064C22.0834 0.416521 15.4855 5.55828 15.4855 5.55828C13.2067 3.85369 11.105 2.69513 9.54598 2.27861C8.23653 1.9321 7.33584 2.22261 6.90538 2.54813ZM26.8691 4.80924C26.8039 4.73574 26.728 4.66923 26.6593 4.59223C26.095 3.9902 25.3968 3.84669 24.7674 3.88169C24.1923 4.0602 21.5481 4.98075 18.2889 7.9594C18.2889 7.9594 21.9568 11.4106 24.2068 14.9422C26.4531 18.4704 27.7951 21.2461 26.9703 25.0928C29.5675 22.3311 31.0072 18.7329 31 14.9983C31 11.0676 29.4373 7.48337 26.8691 4.80924ZM21.2695 16.4473C19.8407 14.9002 18.3613 13.3952 16.8384 11.9356C16.4116 11.5261 15.9594 11.0956 15.4819 10.651C15.4819 10.651 14.7657 11.3441 13.8397 12.2541V12.2506C12.6496 13.4162 11.105 14.9317 10.2477 15.8208C8.72125 17.3959 4.34798 22.3416 4.10562 25.1173C4.10562 25.1173 3.13258 22.9191 5.26676 17.8439C6.65941 14.5222 10.8735 9.54498 12.6315 7.9209C12.6315 7.9209 11.0218 6.21281 9.00701 5.02975L8.99254 5.02625C8.99254 5.02625 8.96722 5.00875 8.93828 4.99125C7.96886 4.43122 6.90538 3.9972 5.88893 3.9377C4.85078 4.0112 4.18882 4.74974 4.18882 4.74974C1.49396 7.51838 -0.0072085 11.1901 2.60278e-05 15.0018C2.60278e-05 23.2867 6.93794 30 15.5036 30C20.0469 30 24.1308 28.1064 26.9703 25.0893C26.9703 25.0858 26.6448 23.1082 24.5612 20.2695C24.0657 19.608 22.2788 17.5359 21.2695 16.4473Z" fill="#F9FAFB"/>
</svg>
