<svg width="26" height="19" viewBox="0 0 26 19" fill="none" xmlns="http://www.w3.org/2000/svg">
<path d="M25.1194 3.31942C24.9716 2.77476 24.6839 2.27824 24.2849 1.8792C23.8858 1.48015 23.3893 1.19247 22.8447 1.04474C20.8505 0.500244 12.8239 0.500244 12.8239 0.500244C12.8239 0.500244 4.79692 0.516294 2.80232 1.06079C2.25766 1.20852 1.76114 1.4962 1.3621 1.89525C0.963053 2.29429 0.675372 2.79081 0.527642 3.33546C0 5.33007 0 9.50024 0 9.50024C0 9.50024 0 13.6704 0.544093 15.6811C0.691823 16.2257 0.979504 16.7222 1.37855 17.1213C1.77759 17.5203 2.27411 17.808 2.81877 17.9558C4.81297 18.5002 12.8399 18.5002 12.8399 18.5002C12.8399 18.5002 20.8669 18.5002 22.8615 17.9562C23.4062 17.8084 23.9027 17.5207 24.3017 17.1217C24.7008 16.7226 24.9885 16.2261 25.1362 15.6815C25.6799 13.6869 25.6799 9.50024 25.6799 9.50024C25.6799 9.50024 25.6638 5.33007 25.1194 3.31942Z" fill="#9CA3AF"/>
<path d="M10.2687 13.3569L16.9274 9.50011L10.2683 5.64331L10.2687 13.3569Z" fill="white"/>
</svg>
